<svg xmlns="http://www.w3.org/2000/svg" viewBox="0 0 1200 630" width="1200" height="630">
  <!-- Background gradient -->
  <defs>
    <linearGradient id="bgGradient" x1="0%" y1="0%" x2="100%" y2="100%">
      <stop offset="0%" style="stop-color:#1e1b4b;stop-opacity:1" />
      <stop offset="100%" style="stop-color:#312e81;stop-opacity:1" />
    </linearGradient>
  </defs>

  <!-- Background -->
  <rect width="1200" height="630" fill="url(#bgGradient)"/>

  <!-- Calendar Icon (larger) -->
  <g transform="translate(200, 165)">
    <rect x="0" y="20" width="200" height="185" rx="15" fill="#4F46E5" stroke="#6366f1" stroke-width="4"/>
    <rect x="0" y="20" width="200" height="50" rx="15" fill="#6366f1"/>
    <circle cx="50" cy="0" r="15" fill="#4F46E5" stroke="#6366f1" stroke-width="3"/>
    <circle cx="150" cy="0" r="15" fill="#4F46E5" stroke="#6366f1" stroke-width="3"/>

    <!-- Calendar grid -->
    <g fill="#a5b4fc" opacity="0.8">
      <circle cx="40" cy="110" r="8"/>
      <circle cx="75" cy="110" r="8"/>
      <circle cx="110" cy="110" r="8"/>
      <circle cx="145" cy="110" r="8"/>
      <circle cx="40" cy="145" r="8"/>
      <circle cx="75" cy="145" r="8"/>
      <circle cx="110" cy="145" r="8"/>
      <circle cx="145" cy="145" r="8"/>
      <circle cx="40" cy="180" r="8"/>
      <circle cx="75" cy="180" r="8"/>
      <circle cx="110" cy="180" r="8"/>
    </g>

    <!-- Highlight one day -->
    <circle cx="145" cy="180" r="12" fill="#f59e0b"/>
  </g>

  <!-- Text -->
  <text x="480" y="240" font-family="system-ui, -apple-system, sans-serif" font-size="64" font-weight="bold" fill="#ffffff">
    EsportsCalendar
  </text>

  <text x="480" y="310" font-family="system-ui, -apple-system, sans-serif" font-size="32" fill="#c7d2fe">
    Never Miss an Esports Match
  </text>

  <text x="480" y="380" font-family="system-ui, -apple-system, sans-serif" font-size="24" fill="#a5b4fc">
    Track your favorite teams across LoL, CS:GO, Dota 2,
  </text>
  <text x="480" y="420" font-family="system-ui, -apple-system, sans-serif" font-size="24" fill="#a5b4fc">
    Valorant, and more in your calendar app
  </text>

  <!-- Bottom accent -->
  <rect x="480" y="460" width="120" height="6" rx="3" fill="#4F46E5"/>
</svg>
